<?xml version="1.0" encoding="iso-8859-1"?>
<!-- Generator: Adobe Illustrator 18.0.0, SVG Export Plug-In . SVG Version: 6.00 Build 0)  -->
<!DOCTYPE svg PUBLIC "-//W3C//DTD SVG 1.1//EN" "http://www.w3.org/Graphics/SVG/1.1/DTD/svg11.dtd">
<svg version="1.1" id="Capa_1" xmlns="http://www.w3.org/2000/svg" xmlns:xlink="http://www.w3.org/1999/xlink" x="0px" y="0px"
	 viewBox="0 0 477.011 477.011" style="enable-background:new 0 0 477.011 477.011;" xml:space="preserve">
<g>
	<path d="M83.288,236.608c-4.303,5.764-6.555,12.094-6.555,18.596c0,21.789,25.452,39.978,59.885,43.372
		c3.609,22.417,33.544,39.374,71.108,39.374c25.062,0,47.961-7.85,60.833-20.662c11.41,3.58,24.209,5.484,37.271,5.484
		c44.637,0,79.602-20.969,79.602-47.737c0-6.907-2.389-13.636-6.973-19.78c22.405-8.687,36.013-23.622,36.013-40.073
		c0-17.874-16.201-34.066-42.289-42.262c-0.218-0.068-0.43-0.127-0.647-0.193c1.478-5.769,2.13-11.528,1.969-17.019
		c-0.077-2.628-2.178-4.748-4.806-4.849c-0.739-0.028-2.666-0.03-2.899-0.027c-6.725-10.938-20.065-20.058-37.354-25.492
		c-1.734-3.376-3.753-6.583-6.074-9.552c-1.621-2.073-4.571-2.535-6.744-1.06c-3.681,2.494-7.014,5.378-10.008,8.625
		c-2.599-2.319-5.54-4.5-8.801-6.516c-15.059-9.303-35.426-14.426-57.348-14.426c-19.651,0-38.298,4.209-52.829,11.868
		c-7.554-2.382-15.593-3.602-23.946-3.602c-33.176,0-60.166,19.714-60.166,43.946c0,1.823,0.154,3.639,0.454,5.436
		c-24.934,5.564-42.508,22.627-42.508,42.028C60.477,215.791,68.889,228.346,83.288,236.608z M86.732,255.204
		c0-5.817,2.828-10.676,5.842-14.206c8.607,3.298,18.232,5.037,28.068,5.037c7.559,0,14.879-0.994,21.807-2.955
		c13.501,13.507,37.373,22.056,63.959,22.896c-9.051,14.681-35.616,24.725-64.852,22.973
		C110.814,287.074,86.732,272.251,86.732,255.204z M154.045,196.667c7.816-5.967,18.421-10.567,30.668-13.305
		c3.216-0.72,20.963-3.186,35.611-2.417c1.204,3.01,2.641,5.989,4.327,8.898c-21.681,8.814-34.43,23.264-34.43,39.439
		c0,9.588,4.691,18.81,13.234,26.554c-23.8-1.406-45.17-9.621-55.724-21.728c-4.379-5.026-6.6-10.341-6.6-15.796
		C141.131,208.581,148.155,201.168,154.045,196.667z M271.854,125.967c8.173,6.882,13.986,16.546,17.313,28.808
		c0.104,0.379,0.205,0.772,0.305,1.175c-1.832,8.676-3.3,22.652-3.185,34.975c-7.311-9.461-16.029-18.696-21.805-23.647
		C261.752,152.67,264.458,137.669,271.854,125.967z M332.41,173.863c9.92-7.895,20.33-12.24,30.991-12.944
		c-1.563,21.767-17.579,46.721-51.256,54.4c-3.746,0.854-6.854,1.288-9.236,1.288c-2.075,0-3.004-0.336-3.318-0.488
		c-0.002-0.034-0.004-0.075-0.004-0.123C299.566,210.357,318.86,184.646,332.41,173.863z M302.909,226.607
		c3.175,0,6.923-0.503,11.46-1.538c7.946-1.812,15.033-4.483,21.303-7.797c2.486,3.886,3.759,7.911,3.759,12.01
		c0,8.688-5.841,17.255-16.444,24.122c-13.373,8.647-32.752,13.607-53.166,13.607c-17.582,0-34.341-3.641-47.313-10.266
		c-0.264-0.135-1.88-0.988-2.324-1.236c-12.712-7.102-19.962-16.594-19.962-26.228c0-12.195,11.488-23.869,30.223-30.972
		c9.686,12.149,24.291,22.182,44.36,26.759c4.538,1.035,8.287,1.538,11.461,1.538c0.001,0,0,0,0.001,0
		c3.708,0,6.384-0.735,8.321-1.828C296.525,225.871,299.201,226.607,302.909,226.607z M256.765,173.863
		c13.551,10.784,32.844,36.494,32.822,42.133c0,0.048-0.002,0.089-0.004,0.123c-0.315,0.153-1.244,0.488-3.318,0.488
		c-2.383,0-5.49-0.434-9.237-1.288c-33.676-7.68-49.691-32.634-51.255-54.4C236.435,161.623,246.845,165.968,256.765,173.863z
		 M253.524,159.525c-5.021-2.936-10.157-5.136-15.387-6.589c4.949-1.217,10.168-2.123,15.565-2.671
		C253.446,153.327,253.375,156.42,253.524,159.525z M215.809,161.583c0.216,3.013,0.661,6.074,1.346,9.149
		c-4.409-0.207-8.859-0.195-13.282,0.026C207.016,167.386,211.061,164.297,215.809,161.583z M207.726,327.95
		c-30.144,0-56.053-12.723-60.722-28.818c0.4,0.004,0.806,0.018,1.203,0.018c33.607,0,62.023-13.956,69.528-33.63
		c12.002,6.177,26.826,10.034,42.577,11.146c4.301,3.93,8.889,9.869,8.889,17.337c0,4.945-1.987,9.751-5.909,14.286
		C252.981,320.233,231.171,327.95,207.726,327.95z M305.829,312.772c-10.699,0-21.166-1.38-30.69-3.976
		c2.671-4.705,4.062-9.722,4.062-14.793c0-5.961-1.858-11.725-5.443-17.053c20.164-0.591,39.27-5.711,53.231-14.274
		c2.615,0.151,5.252,0.246,7.872,0.246c11.537,0,22.999-1.505,33.381-4.336c4.711,5.154,7.19,10.795,7.19,16.449
		C375.431,295.491,343.557,312.772,305.829,312.772z M369.192,182.462c21.761,6.836,35.278,19.373,35.278,32.719
		c0,13.381-14.202,26.336-36.182,33.006c-8.914,2.706-18.861,4.296-29.01,4.655c6.618-7.085,10.152-15.17,10.152-23.561
		c0-5.915-1.802-11.79-5.238-17.243c11.504-8.167,19.449-18.748,24.142-29.833C368.622,182.293,368.903,182.372,369.192,182.462z
		 M354.413,152.116c-6.398,1.376-12.665,3.845-18.762,7.409c0.357-7.441-0.465-14.828-2.392-21.812
		C342.349,141.519,349.625,146.475,354.413,152.116z M317.321,125.966c7.396,11.703,10.101,26.704,7.372,41.312
		c-7.546,6.468-20.12,20.253-27.997,32.283c-0.292-3.09-0.47-7.118-0.391-12.298c0.164-10.648,1.407-22.525,3.167-30.256
		c0.014-0.061,0.369-1.59,0.549-2.249C303.334,142.512,309.144,132.851,317.321,125.966z M299.475,131.285
		c-1.818,2.797-3.453,5.784-4.887,8.972c-3.713-8.242-8.714-15.183-14.954-20.767c4.322,1.684,8.337,3.636,11.927,5.854
		C294.552,127.192,297.195,129.183,299.475,131.285z M239.471,112.412c9.552,0,18.907,1.107,27.533,3.165
		c-0.065,0.073-0.139,0.133-0.2,0.211c-5.501,7.038-9.363,15.377-11.479,24.291c-30.009,2.412-55.266,14.915-64.733,32.011
		c-1.988,0.304-3.971,0.66-5.933,1.061c-9.55-6.66-14.787-14.772-14.787-23.009c0-9.656,7.002-18.924,19.714-26.094
		C202.902,116.544,220.619,112.412,239.471,112.412z M162.696,120.678c4.281,0,8.457,0.37,12.505,1.081
		c-9.949,8.097-15.33,17.912-15.33,28.382c0,9.441,4.477,18.48,12.763,26.148c-8.711,2.811-16.473,6.578-22.873,11.117
		c-17.678-3.223-31.655-12.923-35.904-25.07c-0.881-2.509-1.327-5.104-1.327-7.712C112.53,135.907,135.034,120.678,162.696,120.678z
		 M106.103,169.615c5.85,11.809,18.554,21.287,34.466,25.888c-6.203,6.908-9.438,14.662-9.438,22.808c0,5.524,1.567,11,4.569,16.136
		c-4.838,1.046-9.875,1.586-15.058,1.586c-9.729,0-19.177-1.914-27.321-5.536c-14.305-6.356-22.845-16.978-22.845-28.41
		C70.477,187.187,85.245,173.934,106.103,169.615z"/>
	<path d="M406.287,116.107C361.396,87.771,301.81,72.166,238.506,72.166c-63.305,0-122.891,15.605-167.782,43.941
		C25.117,144.895,0,183.41,0,224.557l0.001,27.898c0,41.146,25.116,79.661,70.721,108.448
		c44.892,28.336,104.477,43.941,167.779,43.941c63.308,0,122.896-15.605,167.787-43.941c45.606-28.787,70.723-67.301,70.723-108.448
		v-27.898C477.011,183.41,451.895,144.895,406.287,116.107z M238.506,82.166c125.998,0,228.505,63.877,228.505,142.392
		S364.504,366.948,238.506,366.948C112.507,366.948,10,303.072,10,224.557S112.507,82.166,238.506,82.166z M238.501,394.845
		c-114.408,0-209.44-52.669-225.953-121.139c11.716,22.16,31.412,42.406,58.176,59.3c44.892,28.336,104.479,43.941,167.782,43.941
		s122.89-15.605,167.781-43.941c26.765-16.894,46.462-37.141,58.177-59.302C447.952,342.176,352.915,394.845,238.501,394.845z"/>
</g>
<g>
</g>
<g>
</g>
<g>
</g>
<g>
</g>
<g>
</g>
<g>
</g>
<g>
</g>
<g>
</g>
<g>
</g>
<g>
</g>
<g>
</g>
<g>
</g>
<g>
</g>
<g>
</g>
<g>
</g>
</svg>
